<svg width="84" height="52" viewBox="0 0 84 52" fill="none" xmlns="http://www.w3.org/2000/svg">
<path d="M5.68046 29.1258C3.07286 27.6909 2.88976 24.0123 5.34198 22.3256L35.745 1.41349C37.0028 0.548366 38.6433 0.474562 39.9736 1.22325L78.491 22.8997C81.0502 24.3399 81.2368 27.9549 78.8394 29.651L49.2945 50.5536C48.0439 51.4383 46.3979 51.5311 45.0559 50.7926L5.68046 29.1258Z" fill="black"/>
<path d="M42.5719 14V18.628H45.6343V22.6538H42.5719V31.1699C42.5719 31.8695 42.6981 32.357 42.9504 32.6323C43.2028 32.9075 43.7017 33.0452 44.4472 33.0452C45.0207 33.0452 45.5024 33.0108 45.8924 32.9419V37.0882C44.8486 37.4208 43.759 37.5871 42.6236 37.5871C40.6279 37.5871 39.154 37.1168 38.2021 36.1763C37.2501 35.2358 36.7741 33.8079 36.7741 31.8925V22.6538H34.3999V18.628H36.7741V14H42.5719Z" fill="white"/>
<rect x="49" y="33" width="5" height="5" fill="#FABB18"/>
</svg>
